<?xml version="1.0" standalone="no"?>
<!DOCTYPE svg PUBLIC "-//W3C//DTD SVG 20010904//EN"
 "http://www.w3.org/TR/2001/REC-SVG-20010904/DTD/svg10.dtd">
<svg version="1.0" xmlns="http://www.w3.org/2000/svg"
 width="400.000000pt" height="400.000000pt" viewBox="0 0 400.000000 400.000000"
 preserveAspectRatio="xMidYMid meet">
<metadata>
Created by potrace 1.14, written by Peter Selinger 2001-2017
</metadata>
<g transform="translate(0.000000,400.000000) scale(0.100000,-0.100000)"
fill="#000000" stroke="none">
<path d="M1818 3849 c-765 -74 -1425 -638 -1613 -1377 -76 -303 -78 -636 -5
-924 105 -410 346 -775 678 -1026 489 -369 1120 -476 1700 -287 893 292 1428
1213 1241 2140 -82 410 -322 804 -649 1068 -379 306 -867 453 -1352 406z m352
-64 c233 -16 534 -113 745 -240 255 -154 487 -386 630 -630 505 -857 224
-1950 -631 -2461 -553 -330 -1275 -331 -1820 -4 -147 88 -233 156 -369 294
-251 252 -409 545 -487 906 -20 93 -22 133 -22 350 0 217 2 257 22 350 63 291
194 568 372 785 307 376 781 622 1260 654 63 4 138 6 165 5 28 -2 88 -6 135
-9z"/>
<path d="M1780 3730 c-723 -99 -1310 -629 -1474 -1330 -226 -967 388 -1915
1366 -2112 96 -19 144 -23 328 -23 185 0 231 3 328 23 701 142 1230 663 1378
1360 31 146 43 397 25 549 -80 682 -553 1256 -1206 1465 -160 51 -283 69 -485
73 -107 2 -224 0 -260 -5z m445 -570 c6 -10 164 -492 261 -795 27 -82 49 -151
50 -153 1 -2 64 33 139 77 75 45 140 81 144 81 8 0 101 -246 101 -267 0 -6
-60 -46 -132 -89 -73 -42 -138 -81 -145 -86 -8 -7 -6 -25 9 -71 12 -34 22 -63
23 -65 1 -1 66 36 144 83 78 47 146 85 150 85 9 0 51 -95 51 -114 0 -7 -69
-45 -152 -86 -84 -41 -155 -75 -157 -76 -2 -2 72 -234 97 -301 3 -10 -34 -13
-166 -13 l-169 0 -23 83 c-13 45 -24 83 -26 85 -1 2 -79 -35 -173 -82 -166
-84 -171 -85 -182 -65 -15 28 -15 28 171 139 85 50 156 93 157 94 1 1 -7 32
-18 68 l-21 67 -46 -28 c-26 -16 -109 -65 -186 -111 l-139 -83 -16 22 c-9 12
-52 82 -96 156 -44 74 -82 134 -85 135 -3 0 -13 -30 -23 -66 -9 -37 -40 -145
-69 -240 l-51 -174 -163 0 c-90 0 -164 2 -164 5 0 3 64 171 141 373 78 202
144 374 146 383 2 8 -113 207 -256 441 -144 234 -263 432 -266 440 -4 11 28
34 109 81 63 37 119 67 123 67 4 0 102 -151 218 -335 122 -195 212 -329 216
-322 5 9 176 450 248 640 l11 27 104 0 c58 0 108 -4 111 -10z m-985 -1992 c0
-2 11 -70 25 -153 14 -82 25 -153 25 -157 0 -5 -11 -8 -25 -8 -20 0 -27 6 -31
30 -5 25 -11 30 -34 30 -23 0 -30 -5 -35 -30 -5 -24 -12 -30 -31 -30 -19 0
-24 4 -20 18 3 9 15 81 27 160 l22 142 38 0 c22 0 39 -1 39 -2z m155 -55 c31
-111 33 -113 34 -25 1 81 1 82 26 82 l25 0 0 -160 0 -160 -29 0 c-28 0 -30 3
-50 83 -37 140 -39 141 -40 25 l-1 -108 -25 0 -25 0 0 160 0 160 35 0 c33 0
35 -2 50 -57z m175 -103 l0 -160 -30 0 -30 0 0 160 0 160 30 0 30 0 0 -160z
m80 26 l0 -135 43 -3 c35 -2 43 -7 45 -25 3 -22 0 -23 -67 -23 l-71 0 0 160 0
160 25 0 25 0 0 -134z m160 -26 l0 -160 -25 0 -25 0 0 160 0 160 25 0 25 0 0
-160z m172 143 c20 -18 25 -82 8 -114 -8 -14 -7 -25 5 -41 22 -32 19 -90 -6
-122 -18 -23 -28 -26 -80 -26 l-59 0 0 160 0 160 57 0 c38 0 62 -5 75 -17z
m192 -5 c20 -28 21 -97 1 -125 -13 -18 -13 -22 0 -33 10 -9 15 -32 15 -76 0
-62 -1 -64 -25 -64 -23 0 -25 4 -25 46 0 51 -14 84 -35 84 -12 0 -15 -15 -15
-65 l0 -65 -30 0 -30 0 0 160 0 160 64 0 c56 0 67 -3 80 -22z m106 -138 l0
-160 -30 0 -30 0 0 160 0 160 30 0 30 0 0 -160z m169 18 c12 -79 25 -151 27
-160 4 -14 -1 -18 -25 -18 -25 0 -30 4 -33 28 -3 23 -8 27 -33 27 -25 0 -30
-4 -33 -27 -3 -22 -9 -28 -28 -28 -29 0 -29 -9 -4 148 29 184 24 172 68 172
l38 0 23 -142z m251 117 c0 -20 -5 -25 -25 -25 l-25 0 0 -135 0 -135 -25 0
-25 0 0 134 0 135 -27 3 c-20 2 -29 9 -31 26 -3 21 -1 22 77 22 80 0 81 0 81
-25z m80 -77 c7 -57 15 -109 19 -116 4 -7 13 34 20 90 17 126 17 128 47 128
20 0 23 -4 19 -22 -4 -20 -45 -285 -45 -294 0 -2 -18 -4 -39 -4 -45 0 -41 -10
-66 160 -8 58 -17 117 -20 133 -4 24 -1 27 24 27 l28 0 13 -102z m-230 -193
c0 -20 -5 -25 -25 -25 -20 0 -25 5 -25 25 0 20 5 25 25 25 20 0 25 -5 25 -25z"/>
<path d="M1978 2505 l-77 -265 90 -142 c49 -79 94 -144 99 -146 5 -2 48 20 96
48 62 38 84 57 81 69 -36 132 -202 688 -207 694 -3 4 -40 -112 -82 -258z"/>
<path d="M1190 1063 c0 -11 -3 -41 -6 -67 -6 -43 -5 -46 15 -46 21 0 22 3 16
58 -7 56 -25 97 -25 55z"/>
<path d="M1900 1080 c0 -33 3 -40 20 -40 13 0 22 9 26 25 8 34 -1 55 -26 55
-17 0 -20 -6 -20 -40z"/>
<path d="M1900 946 c0 -43 2 -46 26 -46 23 0 25 3 22 43 -2 35 -7 43 -25 45
-21 3 -23 -1 -23 -42z"/>
<path d="M2090 1075 c0 -38 3 -45 19 -45 23 0 35 31 27 66 -4 15 -14 24 -26
24 -17 0 -20 -7 -20 -45z"/>
<path d="M2376 1040 c-4 -30 -10 -63 -12 -72 -4 -14 1 -18 20 -18 22 0 25 3
20 28 -3 15 -8 47 -13 72 l-7 45 -8 -55z"/>
</g>
</svg>
